<?xml version="1.0" standalone="no"?>
<!DOCTYPE svg PUBLIC "-//W3C//DTD SVG 20010904//EN"
 "http://www.w3.org/TR/2001/REC-SVG-20010904/DTD/svg10.dtd">
<svg version="1.0" xmlns="http://www.w3.org/2000/svg"
 width="1920.000000pt" height="1920.000000pt" viewBox="0 0 1920.000000 1920.000000"
 preserveAspectRatio="xMidYMid meet">
<metadata>
Created by potrace 1.14, written by Peter Selinger 2001-2017
</metadata>
<g transform="translate(0.000000,1920.000000) scale(0.100000,-0.100000)"
fill="#000000" stroke="none">
<path d="M9238 19195 c-2 -2 -64 -6 -138 -10 -74 -3 -155 -8 -179 -10 -23 -2
-80 -6 -125 -10 -44 -3 -99 -8 -121 -10 -22 -3 -65 -7 -95 -10 -30 -3 -66 -8
-80 -9 -14 -2 -54 -7 -90 -11 -62 -6 -83 -9 -147 -20 -16 -2 -48 -6 -73 -9
-25 -3 -56 -8 -70 -11 -14 -3 -43 -8 -65 -10 -46 -6 -238 -41 -305 -55 -25 -5
-61 -12 -80 -15 -19 -3 -51 -10 -70 -15 -19 -5 -48 -11 -65 -14 -34 -6 -105
-23 -185 -43 -30 -8 -66 -16 -79 -19 -20 -4 -394 -107 -426 -117 -5 -2 -30 -9
-55 -16 -63 -18 -459 -150 -495 -166 -16 -8 -84 -34 -150 -59 -121 -45 -224
-86 -280 -111 -16 -8 -56 -25 -88 -39 -32 -14 -59 -26 -62 -26 -6 0 -149 -67
-312 -146 -84 -41 -157 -74 -162 -74 -5 0 -11 -4 -13 -8 -1 -5 -37 -26 -78
-46 -104 -53 -421 -232 -560 -317 -224 -137 -698 -462 -825 -566 -5 -4 -41
-33 -80 -63 -38 -29 -77 -60 -85 -67 -8 -7 -76 -63 -150 -125 -74 -62 -137
-114 -140 -117 -3 -4 -41 -37 -85 -76 -44 -38 -100 -88 -125 -110 -74 -66
-530 -526 -600 -605 -36 -40 -69 -78 -75 -84 -5 -6 -39 -45 -75 -86 -36 -41
-69 -80 -75 -86 -9 -10 -25 -29 -104 -124 -23 -28 -22 -27 -71 -90 -19 -25
-37 -47 -40 -50 -17 -17 -266 -349 -295 -395 -10 -16 -23 -35 -29 -42 -23 -26
-33 -39 -37 -48 -2 -6 -45 -71 -95 -145 -117 -175 -254 -394 -254 -408 0 -6
-4 -12 -8 -14 -9 -4 -63 -97 -204 -353 -64 -116 -308 -616 -308 -630 0 -2 -16
-39 -36 -82 -20 -43 -39 -87 -44 -98 -4 -11 -12 -31 -17 -45 -6 -14 -11 -28
-12 -33 0 -4 -12 -30 -26 -57 -14 -27 -25 -52 -25 -55 -1 -6 -1 -6 -61 -165
-28 -74 -52 -142 -54 -150 -2 -8 -29 -87 -59 -175 -30 -88 -67 -200 -81 -250
-37 -127 -97 -337 -100 -355 -2 -8 -4 -15 -5 -15 -1 0 -3 -8 -5 -17 -2 -9 -11
-48 -20 -85 -10 -37 -19 -75 -20 -83 -2 -8 -4 -15 -5 -15 -1 0 -4 -11 -6 -24
-2 -14 -11 -54 -20 -90 -9 -37 -17 -75 -20 -86 -2 -11 -6 -31 -9 -45 -3 -14
-7 -34 -9 -45 -25 -135 -37 -194 -41 -215 -3 -14 -7 -38 -10 -55 -2 -16 -9
-57 -14 -90 -6 -33 -14 -80 -17 -105 -3 -25 -8 -54 -10 -65 -2 -11 -6 -40 -9
-65 -3 -25 -8 -61 -11 -80 -13 -83 -22 -160 -30 -245 -4 -38 -8 -83 -10 -100
-1 -16 -6 -68 -9 -115 -4 -47 -8 -103 -11 -125 -25 -252 -24 -1107 2 -1362 3
-29 7 -81 9 -115 4 -69 10 -140 25 -268 15 -126 19 -155 35 -270 8 -58 17
-118 19 -135 5 -40 25 -153 31 -185 3 -14 7 -38 10 -55 2 -16 9 -55 15 -85 6
-30 14 -68 16 -85 5 -30 21 -107 39 -175 0 -3 4 -23 8 -45 11 -55 74 -314 98
-400 11 -38 24 -88 31 -110 17 -64 30 -109 36 -125 3 -8 6 -22 8 -30 5 -23
163 -495 183 -545 6 -16 28 -73 47 -125 20 -52 39 -104 44 -115 5 -11 25 -60
46 -110 40 -99 59 -142 98 -227 14 -31 26 -59 26 -62 0 -3 38 -84 85 -180 47
-97 85 -179 86 -184 0 -4 5 -13 11 -20 6 -6 31 -51 55 -100 77 -150 200 -371
274 -489 22 -34 39 -67 39 -73 0 -5 5 -10 10 -10 6 0 10 -5 10 -11 0 -5 18
-37 40 -69 22 -32 40 -63 40 -69 0 -5 3 -11 8 -13 4 -1 61 -84 126 -183 66
-99 132 -196 146 -215 15 -19 65 -87 111 -150 93 -126 255 -333 324 -414 35
-40 68 -80 125 -146 74 -88 63 -76 170 -192 109 -118 483 -495 581 -583 36
-33 98 -89 139 -125 191 -170 252 -220 485 -405 21 -16 88 -67 149 -112 61
-45 118 -89 127 -98 9 -8 20 -15 25 -15 5 0 25 -13 44 -29 54 -44 396 -271
409 -271 6 0 11 -4 11 -10 0 -5 7 -10 15 -10 8 0 15 -4 15 -10 0 -5 5 -10 11
-10 5 0 37 -18 69 -40 32 -22 61 -40 63 -40 3 0 35 -18 72 -41 75 -45 103 -61
202 -115 37 -20 73 -40 78 -44 6 -4 78 -42 160 -85 83 -43 157 -82 165 -86 43
-23 299 -142 395 -184 61 -26 124 -53 140 -61 17 -7 66 -27 110 -44 44 -18 94
-38 110 -45 79 -35 508 -189 555 -200 8 -2 35 -10 60 -18 25 -8 92 -29 150
-46 58 -17 119 -36 135 -41 31 -9 331 -88 366 -96 10 -2 27 -6 37 -8 27 -7
212 -47 234 -51 11 -2 27 -7 36 -9 9 -3 34 -8 56 -10 21 -3 46 -8 55 -10 20
-6 41 -10 221 -40 230 -38 228 -38 330 -51 30 -4 69 -9 85 -11 17 -2 50 -6 75
-8 25 -3 65 -8 90 -11 56 -7 122 -13 220 -20 41 -3 98 -8 125 -11 265 -26
1055 -25 1375 1 25 2 81 6 125 10 83 6 95 7 210 20 39 4 84 9 100 10 49 5 179
22 225 30 14 2 45 7 70 9 25 3 56 8 70 11 14 3 41 8 60 11 31 4 58 8 175 29
17 2 41 7 55 10 14 3 41 8 60 11 19 4 42 8 50 10 17 3 155 33 185 40 11 3 32
6 47 9 15 2 36 6 47 10 11 3 28 7 38 10 77 15 561 146 633 171 8 3 17 6 20 6
12 2 384 129 460 158 100 37 254 96 290 111 49 21 86 37 175 74 50 20 97 41
105 46 8 5 22 12 30 15 33 13 79 34 165 75 50 24 92 43 95 44 6 1 191 95 285
145 39 20 104 55 145 76 41 22 79 43 85 47 5 4 73 44 150 88 77 45 156 91 175
104 19 12 60 37 90 56 30 19 90 58 133 87 43 28 82 52 87 52 4 0 10 3 12 8 2
4 37 29 78 57 41 27 80 53 85 58 6 4 44 32 85 62 166 119 376 279 395 299 6 6
27 24 48 39 20 16 49 38 62 50 14 12 39 33 56 47 17 14 37 30 43 35 6 6 38 33
71 60 32 28 66 57 75 65 9 8 59 53 110 100 230 209 483 463 668 669 37 40 72
79 77 85 22 24 142 164 180 210 22 27 45 54 50 60 6 6 26 31 45 56 19 25 37
47 41 50 14 11 242 315 341 455 111 158 408 615 408 629 0 2 25 45 55 95 30
51 55 94 55 96 0 2 15 30 33 62 19 32 56 101 84 153 28 52 56 106 64 120 7 14
14 27 14 30 1 3 33 69 73 148 39 78 71 143 71 145 0 1 14 34 32 72 56 126 66
149 109 250 23 55 47 114 55 130 54 124 283 778 299 855 5 26 48 180 67 237 5
18 12 40 14 50 1 10 11 47 20 83 16 62 19 75 29 118 2 10 11 47 19 83 9 35 19
80 23 99 4 19 9 40 10 45 6 24 23 105 30 150 1 6 3 12 4 15 1 3 3 16 6 30 2
14 7 36 11 50 3 14 6 28 5 33 -1 4 2 27 8 52 6 25 13 62 16 83 3 20 7 48 10
62 2 14 7 45 10 70 3 25 8 54 10 65 5 21 14 88 19 140 2 17 4 30 5 30 1 0 3
16 5 35 2 19 6 55 9 80 3 25 7 65 10 90 5 45 12 116 22 220 5 56 6 69 20 300
5 74 9 311 8 525 0 347 -4 496 -19 685 -2 30 -7 91 -10 135 -10 119 -13 152
-31 300 -8 64 -14 117 -18 160 -3 22 -8 56 -11 75 -4 19 -8 50 -11 69 -2 19
-6 46 -9 60 -7 42 -36 214 -40 239 -2 12 -6 30 -9 40 -3 9 -7 33 -10 52 -23
150 -115 539 -200 843 -71 253 -234 725 -310 899 -9 20 -16 39 -16 43 0 3 -8
25 -19 48 -10 23 -47 107 -81 187 -63 147 -263 559 -342 705 -91 166 -119 215
-173 305 -30 51 -55 96 -55 101 0 5 -4 9 -10 9 -5 0 -10 4 -10 9 0 20 -334
533 -351 539 -5 2 -9 8 -9 13 0 11 -221 310 -329 444 -125 157 -129 161 -184
225 -12 14 -47 55 -77 90 -73 86 -62 74 -170 192 -208 228 -576 586 -795 774
-44 38 -89 77 -100 87 -83 76 -490 392 -614 477 -29 19 -58 40 -65 47 -17 15
-329 223 -373 249 -18 10 -33 22 -33 26 0 4 -6 8 -12 8 -12 0 -137 76 -165
100 -7 5 -15 10 -19 10 -3 0 -43 23 -89 50 -46 28 -86 50 -91 50 -4 0 -15 6
-23 14 -33 29 -543 289 -754 385 -88 40 -332 143 -370 157 -20 7 -52 20 -70
27 -17 8 -59 25 -92 37 -33 12 -73 28 -90 35 -106 46 -645 215 -890 280 -122
33 -111 30 -160 39 -22 4 -51 12 -65 16 -14 5 -36 11 -50 14 -14 2 -47 10 -75
16 -56 13 -54 13 -190 39 -162 32 -279 54 -365 67 -25 3 -54 8 -65 10 -28 4
-72 11 -125 19 -25 3 -56 8 -70 10 -14 2 -50 7 -80 10 -30 3 -75 8 -100 11
-104 12 -237 25 -295 29 -27 2 -90 6 -140 10 -49 4 -117 9 -150 11 -71 5 -873
13 -877 9z m194 -710 c4 -16 11 -43 14 -60 3 -16 9 -46 14 -65 5 -19 16 -65
25 -102 23 -104 45 -200 52 -228 3 -14 8 -34 10 -45 2 -11 13 -58 24 -105 11
-47 29 -125 40 -175 11 -49 23 -101 26 -115 3 -14 7 -30 9 -36 1 -7 10 -45 19
-85 9 -41 19 -85 21 -99 3 -14 8 -34 11 -45 7 -21 8 -24 16 -65 3 -14 15 -68
27 -120 12 -52 24 -106 26 -119 3 -14 7 -28 10 -32 3 -6 -1833 -1851 -1888
-1897 -13 -10 -44 0 -184 59 -93 39 -182 77 -199 84 -16 8 -172 73 -345 146
-173 72 -331 139 -350 147 -19 9 -39 17 -45 18 -10 3 -465 194 -520 219 -16 7
-86 37 -155 65 -69 29 -131 57 -137 62 -7 6 -13 8 -13 5 0 -3 -39 11 -87 32
-99 42 -126 54 -133 56 -3 1 -21 8 -40 17 -19 8 -107 45 -195 82 -88 37 -173
73 -190 81 -16 7 -70 29 -120 50 -49 20 -109 45 -132 56 -24 10 -45 19 -48 19
-2 0 -30 12 -62 26 -72 32 -109 48 -150 63 -28 12 -32 19 -42 74 -6 34 -13 73
-16 87 -3 14 -8 41 -11 60 -2 19 -9 55 -15 80 -5 25 -11 59 -14 75 -4 27 -29
168 -40 223 -5 27 3 52 17 52 7 0 101 60 153 97 6 5 24 16 40 26 168 100 220
133 223 139 2 5 8 8 13 8 4 0 41 19 81 43 40 23 84 48 98 55 14 7 50 26 80 43
82 46 446 230 520 263 201 89 390 169 500 210 69 27 134 52 145 56 11 5 43 16
70 25 28 10 59 21 70 26 49 20 377 126 420 135 11 2 47 12 80 23 119 38 671
169 785 186 14 2 50 8 80 14 30 6 71 13 90 16 19 3 46 7 60 10 43 8 87 15 131
20 24 3 58 8 74 11 17 3 46 7 65 9 19 2 53 6 75 9 66 8 149 17 300 31 101 10
145 13 285 20 69 4 126 8 127 8 1 1 45 2 99 2 l98 0 8 -30z m703 20 c22 -1 85
-6 140 -10 94 -6 118 -9 213 -19 20 -3 65 -7 99 -10 33 -3 76 -8 95 -10 18 -3
56 -8 83 -11 103 -13 121 -15 175 -25 30 -5 71 -11 90 -14 19 -3 46 -8 60 -11
13 -2 42 -7 65 -11 22 -3 63 -10 90 -15 28 -6 61 -12 75 -15 14 -2 45 -9 70
-14 25 -5 59 -12 77 -15 18 -3 43 -9 57 -15 15 -5 26 -8 26 -5 0 2 15 -1 33
-6 17 -5 44 -11 58 -14 41 -7 367 -92 424 -111 6 -1 65 -19 133 -39 108 -32
361 -115 402 -132 8 -3 17 -7 20 -7 17 -5 363 -139 415 -162 22 -10 42 -18 45
-19 8 -2 49 -21 105 -46 28 -12 52 -23 55 -24 32 -7 557 -269 574 -285 7 -7
-49 -65 -354 -360 -144 -139 -581 -564 -685 -665 l-103 -101 -43 12 c-221 59
-358 96 -378 100 -13 3 -32 9 -43 15 -10 5 -18 8 -18 5 0 -3 -15 0 -32 5 -18
6 -40 12 -48 14 -8 2 -42 11 -75 20 -33 9 -110 30 -171 45 -61 16 -124 34
-140 40 -16 6 -31 11 -34 11 -8 0 -50 10 -180 46 -69 19 -134 36 -145 38 -28
5 -463 122 -502 135 -18 6 -40 13 -50 14 -10 2 -38 9 -63 16 -25 7 -52 13 -61
15 -9 2 -47 12 -85 23 -79 23 -121 34 -149 39 -11 2 -27 6 -35 10 -8 3 -23 8
-32 9 -9 2 -81 21 -160 43 -79 21 -155 41 -170 45 -20 4 -29 14 -33 34 -3 15
-13 54 -21 87 -8 33 -17 71 -19 85 -3 14 -7 34 -9 45 -2 11 -9 38 -14 60 -6
22 -13 51 -15 65 -3 14 -12 54 -21 90 -17 69 -24 100 -32 140 -2 14 -7 36 -11
50 -3 14 -7 30 -9 36 -1 7 -10 45 -19 85 -9 41 -19 85 -21 99 -3 14 -8 34 -11
45 -7 21 -8 25 -16 65 -3 14 -20 88 -38 165 -17 77 -33 149 -35 160 -1 11 -3
20 -4 20 -1 0 -3 7 -5 15 -2 8 -10 43 -18 77 l-14 62 201 -5 c111 -3 219 -7
241 -9z m4041 -1251 c29 -19 57 -34 63 -34 5 0 11 -4 13 -8 2 -4 32 -26 68
-47 87 -51 398 -261 480 -322 36 -27 88 -64 115 -83 28 -19 56 -40 64 -48 8
-7 39 -32 69 -54 31 -23 63 -47 71 -54 9 -7 48 -38 86 -70 39 -31 81 -66 95
-77 14 -12 52 -44 85 -72 32 -27 66 -57 75 -65 9 -8 38 -34 65 -58 206 -180
502 -474 722 -718 80 -89 193 -222 287 -339 31 -38 62 -77 69 -85 7 -8 38 -49
70 -90 31 -41 61 -79 65 -85 18 -23 109 -147 137 -187 82 -116 145 -209 145
-214 0 -3 6 -12 13 -20 25 -31 32 -40 47 -65 8 -14 40 -64 70 -112 30 -48 62
-99 70 -112 13 -21 118 -200 178 -305 11 -19 34 -61 51 -93 29 -55 30 -60 16
-93 -8 -19 -14 -35 -14 -37 1 -5 -13 -43 -19 -56 -6 -11 -53 -14 -222 -17
-229 -3 -704 -11 -1140 -19 -260 -5 -564 -11 -1130 -20 -303 -5 -663 -11
-1132 -20 l-287 -6 -11 43 c-6 24 -20 75 -30 113 -22 80 -100 372 -105 395 -4
17 -116 433 -140 520 -12 45 -32 119 -41 153 -1 4 -3 9 -4 12 -1 3 -3 13 -5
23 -1 9 -5 24 -8 32 -3 8 -24 85 -47 170 -22 85 -47 178 -55 205 -8 28 -26 95
-40 150 -14 55 -37 142 -51 193 -14 52 -28 106 -30 120 -3 14 -7 29 -10 34 -5
7 -32 104 -39 141 -2 10 -7 27 -10 37 -3 10 -8 27 -10 37 -2 10 -14 55 -27
100 l-22 82 121 118 c67 65 186 181 265 257 352 342 651 632 742 720 l98 95
30 -15 c17 -9 54 -31 84 -50z m-9474 -1123 c75 -34 121 -54 178 -77 114 -45
398 -165 482 -203 26 -11 50 -21 53 -21 3 0 24 -9 48 -19 23 -11 114 -50 202
-86 88 -37 174 -73 190 -80 17 -8 59 -26 95 -40 36 -15 80 -33 98 -41 67 -29
106 -46 472 -199 206 -86 395 -166 420 -177 25 -11 61 -26 80 -33 19 -7 58
-23 85 -36 28 -13 55 -24 60 -25 8 -2 230 -95 330 -139 17 -7 86 -36 155 -65
69 -28 128 -55 132 -58 4 -4 10 -20 13 -37 8 -40 13 -60 15 -60 1 0 3 -7 5
-15 2 -8 18 -67 35 -130 17 -63 32 -122 35 -130 2 -8 20 -76 40 -150 20 -74
40 -151 45 -170 4 -19 15 -62 24 -95 50 -181 97 -356 101 -372 3 -10 9 -34 14
-53 13 -49 51 -191 57 -212 2 -10 6 -26 9 -35 2 -10 9 -34 14 -53 28 -105 44
-162 62 -228 11 -40 22 -81 24 -90 2 -9 13 -51 24 -92 12 -41 37 -136 57 -210
19 -74 42 -160 50 -190 9 -30 17 -62 19 -70 2 -8 4 -16 4 -17 1 -2 1 -5 1 -8
1 -3 7 -23 15 -45 8 -22 12 -40 10 -40 -2 0 2 -18 10 -40 8 -22 14 -44 15 -48
0 -4 3 -15 6 -26 5 -14 -19 -42 -99 -120 -203 -196 -510 -492 -607 -586 -54
-52 -161 -156 -238 -230 -77 -74 -240 -232 -362 -350 -122 -118 -253 -244
-290 -280 -282 -273 -547 -529 -620 -600 -49 -47 -184 -177 -300 -290 -117
-113 -243 -234 -280 -270 -36 -36 -165 -160 -286 -277 -120 -116 -277 -268
-349 -337 -71 -69 -138 -128 -148 -132 -10 -3 -41 1 -70 10 -43 13 -206 54
-282 71 -11 3 -76 19 -145 36 -69 17 -132 33 -140 34 -8 2 -16 4 -17 5 -3 3
-2 2 -58 15 -22 5 -42 9 -45 10 -43 9 -519 128 -530 132 -8 3 -24 8 -35 9 -11
2 -55 13 -99 25 -43 11 -87 22 -97 24 -10 2 -83 20 -161 40 -79 20 -150 38
-158 40 -8 2 -35 8 -60 15 -25 7 -56 14 -70 16 -14 3 -34 8 -45 11 -11 4 -22
7 -25 8 -3 0 -76 18 -162 39 -141 34 -158 41 -159 60 -3 65 -20 605 -33 1056
-4 113 -9 261 -11 330 -2 69 -7 213 -10 320 -3 107 -8 254 -10 325 -2 72 -7
216 -10 320 -3 105 -7 253 -10 330 -2 77 -7 230 -10 340 -3 110 -8 254 -10
320 -3 66 -7 206 -10 310 -3 105 -8 255 -10 335 -3 80 -7 233 -10 340 -3 107
-7 239 -9 292 l-4 97 110 103 c61 57 128 119 148 138 20 19 83 78 140 130 57
52 120 111 140 130 45 43 256 239 280 260 9 8 68 62 130 120 62 58 127 118
144 134 17 15 83 77 146 136 63 59 129 121 146 136 17 16 80 74 139 129 59 55
119 111 134 124 53 49 246 227 276 256 48 45 256 238 289 269 16 14 30 26 32
26 2 0 23 -9 46 -19z m-2743 -2057 c20 -3 62 -12 93 -19 31 -7 59 -11 61 -9 2
3 10 -2 16 -10 8 -9 14 -62 17 -143 2 -70 6 -204 9 -298 3 -93 7 -244 10 -335
3 -91 7 -230 10 -310 3 -80 7 -233 11 -340 3 -107 7 -253 9 -325 3 -71 7 -206
10 -300 15 -492 18 -596 31 -1000 3 -93 7 -228 9 -300 2 -71 6 -213 9 -314 4
-101 9 -261 11 -355 3 -94 7 -241 10 -326 3 -85 7 -207 9 -272 l2 -116 -75
-80 c-42 -44 -122 -129 -177 -188 -56 -60 -132 -140 -169 -179 -37 -38 -115
-121 -173 -184 -59 -63 -132 -140 -162 -172 -70 -73 -277 -293 -320 -339 -18
-19 -88 -93 -155 -165 -67 -71 -133 -142 -147 -157 -32 -36 -49 -38 -54 -8 -3
14 -11 61 -20 105 -19 101 -22 112 -28 155 -3 19 -8 46 -10 60 -7 36 -16 99
-22 145 -3 22 -9 65 -14 95 -5 30 -12 80 -15 110 -3 30 -8 72 -11 94 -4 21 -8
55 -9 75 -2 20 -6 61 -8 91 -3 30 -8 98 -12 150 -4 52 -9 113 -11 135 -14 186
-19 622 -10 890 4 130 7 175 22 360 3 39 7 97 10 130 2 33 6 74 8 90 3 28 9
79 22 195 3 25 7 56 10 70 2 14 7 43 9 64 3 22 8 53 11 70 3 17 7 47 9 66 3
19 7 46 10 60 3 14 7 41 10 60 3 19 7 46 10 60 3 14 8 41 11 60 11 64 13 75
24 125 6 28 13 66 16 85 3 19 8 38 10 41 2 4 6 22 9 40 3 19 12 61 20 94 9 33
18 71 21 85 3 14 14 59 25 100 11 41 22 84 25 95 2 11 18 67 34 125 17 58 32
112 35 120 46 173 238 715 310 875 12 28 32 75 45 105 27 64 56 130 116 259
24 51 44 97 44 102 0 5 5 9 10 9 6 0 10 6 10 13 0 6 12 35 26 62 216 420 283
537 303 530 8 -3 30 -8 50 -11z m15467 -707 c4 -4 9 -13 10 -20 2 -7 12 -46
23 -87 11 -41 34 -124 50 -185 62 -232 83 -311 88 -334 2 -14 6 -28 9 -33 3
-4 7 -16 9 -25 3 -10 9 -34 14 -53 23 -83 32 -117 37 -140 2 -14 9 -36 14 -50
5 -14 12 -36 14 -50 5 -25 40 -153 77 -285 11 -38 22 -77 24 -85 6 -25 52
-201 70 -265 21 -77 39 -144 124 -463 16 -61 32 -116 35 -120 3 -5 7 -19 10
-33 2 -13 14 -60 26 -104 12 -44 23 -87 25 -95 2 -8 18 -67 35 -130 17 -63 33
-122 35 -130 2 -8 12 -42 21 -75 9 -33 18 -67 20 -75 1 -8 20 -76 40 -150 20
-74 37 -139 38 -145 1 -5 5 -15 8 -21 6 -9 -24 -66 -145 -274 -11 -19 -31 -55
-45 -80 -14 -25 -36 -62 -49 -82 -12 -21 -23 -40 -23 -43 0 -3 -16 -31 -35
-61 -19 -30 -35 -56 -35 -59 0 -3 -17 -33 -38 -67 -21 -35 -41 -70 -45 -78 -4
-8 -18 -33 -32 -55 -14 -22 -28 -46 -31 -54 -4 -7 -52 -91 -107 -185 -145
-248 -156 -268 -170 -296 -6 -14 -14 -27 -17 -30 -3 -3 -33 -52 -65 -110 -33
-58 -64 -113 -70 -122 -5 -9 -17 -29 -26 -45 -8 -15 -84 -146 -167 -291 -84
-144 -152 -265 -152 -268 0 -3 -9 -18 -19 -33 -16 -22 -159 -267 -269 -460
-13 -25 -38 -67 -53 -93 -16 -27 -29 -53 -29 -58 0 -6 -4 -10 -8 -10 -4 0 -13
-12 -20 -27 -7 -16 -18 -37 -25 -48 -7 -11 -30 -51 -52 -90 -21 -38 -43 -71
-47 -73 -4 -2 -8 -12 -8 -22 0 -10 -4 -20 -8 -22 -4 -1 -25 -34 -47 -73 -21
-38 -64 -113 -95 -165 -31 -52 -60 -102 -64 -110 -4 -8 -12 -24 -19 -35 -7
-11 -28 -47 -47 -80 -19 -33 -40 -69 -47 -80 -7 -11 -16 -27 -20 -35 -4 -8
-26 -46 -48 -85 -23 -38 -44 -77 -48 -85 -4 -8 -16 -28 -26 -45 -11 -16 -28
-46 -39 -65 -32 -59 -57 -102 -106 -183 -25 -43 -46 -83 -46 -89 0 -5 -8 -7
-17 -4 -10 2 -65 19 -123 36 -58 17 -134 40 -170 51 -36 10 -119 35 -185 55
-66 19 -127 37 -135 39 -8 2 -69 20 -135 40 -66 20 -127 38 -135 40 -35 9
-227 67 -245 74 -11 5 -78 25 -150 45 -71 21 -173 50 -225 66 -146 43 -450
134 -657 196 -211 63 -280 83 -305 89 -48 11 -71 32 -89 80 -10 28 -50 138
-89 245 -39 107 -94 258 -122 335 -28 77 -54 149 -59 160 -5 11 -45 121 -89
245 -45 124 -85 234 -90 245 -5 11 -20 54 -35 95 -15 41 -31 86 -36 100 -4 14
-14 39 -20 55 -7 17 -13 33 -14 38 -2 4 -4 9 -5 12 -1 3 -3 8 -5 13 -1 4 -5
14 -8 22 -16 38 -88 237 -92 251 -2 9 -15 45 -28 80 -14 35 -49 129 -78 209
-52 143 -89 246 -103 285 -5 11 -12 29 -17 40 -4 11 -17 47 -28 80 -11 33 -31
89 -44 125 -14 36 -59 160 -101 275 -42 116 -79 217 -83 225 -3 8 -7 20 -9 25
-1 6 -12 35 -24 65 -11 30 -30 82 -41 115 -11 33 -24 69 -29 80 -5 11 -18 47
-30 80 -11 33 -25 69 -30 80 -5 11 -20 52 -33 90 -49 140 -118 330 -127 350
-5 11 -21 54 -36 95 -14 41 -39 109 -54 150 -15 41 -40 109 -54 150 -15 41
-30 82 -33 90 -4 8 -7 17 -8 20 -8 31 -30 88 -38 98 -8 10 208 232 939 963
522 523 956 954 965 959 8 5 188 12 400 15 211 3 483 8 604 10 121 2 371 7
555 10 184 3 450 8 590 11 140 2 373 6 518 8 145 2 266 7 269 9 2 3 17 1 33
-3 16 -4 31 -6 34 -3 2 3 155 7 338 10 183 2 334 5 335 6 6 6 263 0 269 -6z
m-8671 -1382 c173 -47 282 -76 295 -79 8 -2 42 -11 75 -20 33 -9 67 -18 75
-20 68 -17 324 -87 330 -91 3 -2 20 -7 36 -10 16 -3 54 -12 84 -21 30 -8 65
-17 77 -19 11 -2 36 -8 55 -14 31 -10 96 -28 298 -81 47 -12 92 -25 100 -28 8
-3 20 -6 25 -7 81 -21 140 -36 185 -48 54 -15 167 -46 420 -113 69 -18 193
-51 275 -74 83 -22 171 -45 197 -52 l47 -11 31 -86 c17 -47 35 -95 40 -106 5
-11 29 -76 54 -145 25 -69 57 -156 71 -195 15 -38 31 -86 37 -105 6 -19 13
-39 16 -45 4 -5 7 -12 7 -15 1 -3 11 -32 24 -65 13 -33 24 -64 26 -70 1 -5 5
-17 8 -25 6 -13 32 -85 154 -420 19 -52 45 -124 58 -160 12 -36 30 -85 40
-110 9 -25 26 -70 37 -100 11 -30 24 -64 28 -75 4 -11 16 -42 25 -70 10 -27
23 -63 30 -80 6 -16 20 -52 29 -80 10 -27 31 -86 48 -130 16 -44 33 -91 38
-105 4 -14 23 -63 40 -110 17 -47 35 -96 40 -110 4 -14 20 -56 35 -95 14 -38
28 -74 29 -80 2 -5 6 -17 9 -25 4 -8 32 -85 62 -170 31 -85 72 -198 92 -250
19 -52 45 -124 58 -160 13 -36 89 -243 169 -460 129 -355 176 -481 267 -730
15 -41 43 -119 62 -173 l35 -97 -24 -19 c-26 -21 -126 -108 -183 -161 -21 -19
-67 -60 -102 -90 -34 -30 -82 -73 -105 -95 -24 -22 -69 -62 -101 -90 -32 -27
-76 -67 -98 -87 -22 -21 -49 -45 -61 -55 -12 -10 -52 -46 -90 -79 -108 -96
-117 -105 -195 -174 -40 -36 -93 -83 -117 -105 -25 -22 -53 -47 -61 -55 -21
-19 -176 -156 -265 -235 -38 -33 -83 -73 -101 -90 -17 -16 -65 -59 -105 -95
-40 -36 -83 -74 -96 -85 -12 -11 -53 -47 -90 -80 -37 -33 -78 -69 -90 -80 -12
-11 -52 -47 -90 -80 -37 -33 -92 -82 -122 -110 -31 -27 -60 -48 -66 -46 -6 2
-20 5 -31 7 -11 1 -69 14 -130 29 -60 14 -151 34 -201 45 -50 11 -138 31 -195
44 -57 14 -115 27 -129 29 -22 5 -62 14 -185 43 -16 4 -34 8 -40 10 -5 1 -23
5 -40 8 -16 3 -45 10 -63 15 -18 5 -35 10 -37 10 -8 -1 -23 3 -255 56 -85 19
-165 37 -178 39 -12 3 -30 7 -40 10 -9 3 -28 7 -42 10 -47 9 -255 56 -290 66
-37 10 -288 67 -330 75 -14 3 -34 7 -45 9 -11 2 -38 9 -60 14 -22 6 -52 13
-68 16 -15 3 -35 7 -45 10 -9 3 -28 8 -42 10 -14 3 -43 10 -65 15 -22 5 -65
14 -95 21 -30 7 -71 16 -90 21 -37 8 -101 23 -370 84 -91 20 -174 39 -185 42
-45 11 -310 70 -348 78 -10 2 -27 7 -37 10 -10 3 -29 8 -42 10 -13 3 -34 7
-48 10 -14 3 -34 7 -45 9 -11 2 -47 11 -80 20 -33 8 -73 17 -90 20 -39 7 -55
11 -140 31 -38 9 -77 18 -85 20 -8 2 -45 10 -81 19 -37 8 -79 17 -93 20 -14 3
-34 7 -44 10 -9 3 -28 7 -42 10 -14 2 -63 13 -110 25 -47 11 -97 22 -110 25
-14 2 -32 7 -40 10 -8 3 -26 8 -40 10 -14 3 -34 7 -45 9 -11 2 -38 8 -60 12
-52 11 -53 11 -100 23 -51 14 -92 23 -133 29 -35 6 -46 19 -56 73 -4 19 -14
60 -22 90 -23 83 -57 217 -74 290 -5 19 -14 55 -20 80 -18 68 -45 180 -56 225
-3 11 -7 27 -9 35 -2 8 -4 15 -5 15 -2 0 -4 12 -13 55 -3 14 -8 32 -11 40 -3
8 -8 26 -10 40 -3 14 -7 34 -10 45 -3 11 -37 146 -76 300 -73 286 -77 302 -86
344 -3 14 -7 28 -10 32 -2 4 -8 27 -13 51 -5 24 -43 178 -86 343 -42 165 -78
307 -80 315 -2 8 -19 77 -38 152 l-34 137 190 183 c104 101 229 221 277 268
48 47 178 173 290 280 111 107 244 236 295 285 180 174 549 531 614 593 36 35
174 168 305 295 132 128 263 255 291 282 29 28 153 147 276 267 123 119 260
251 304 293 75 72 389 376 634 613 71 68 111 100 121 96 8 -3 38 -12 65 -19z
m9761 -2047 c18 -334 -4 -987 -41 -1258 -3 -19 -7 -62 -10 -95 -2 -33 -7 -71
-9 -85 -3 -14 -8 -47 -11 -75 -3 -27 -8 -63 -10 -80 -3 -16 -7 -46 -9 -65 -13
-98 -17 -118 -26 -160 -5 -25 -12 -61 -15 -80 -2 -19 -7 -46 -9 -60 -3 -14 -7
-36 -10 -50 -2 -14 -7 -36 -10 -50 -3 -14 -8 -36 -10 -50 -4 -23 -52 -241 -62
-282 -2 -10 -6 -26 -8 -35 -17 -77 -76 -294 -113 -418 -24 -82 -45 -154 -47
-160 -4 -21 -88 -271 -96 -290 -5 -11 -20 -51 -34 -90 -13 -38 -28 -81 -34
-95 -5 -14 -11 -29 -12 -35 -2 -5 -28 -68 -57 -140 -30 -71 -55 -134 -57 -140
-1 -5 -17 -41 -34 -79 -18 -38 -32 -71 -32 -73 0 -15 -237 -501 -261 -535 -11
-14 -19 -33 -19 -42 0 -9 -4 -16 -10 -16 -5 0 -10 -5 -10 -11 0 -23 -334 -589
-352 -597 -5 -2 -8 -7 -8 -12 0 -5 -19 -36 -42 -71 -24 -34 -48 -69 -53 -78
-15 -24 -107 -156 -165 -236 -27 -38 -58 -81 -67 -95 -10 -14 -20 -27 -23 -30
-3 -3 -25 -32 -50 -65 -25 -32 -51 -66 -58 -75 -7 -8 -25 -31 -40 -51 -32 -42
-77 -98 -182 -222 -41 -49 -83 -99 -92 -111 -14 -17 -18 -18 -22 -6 -5 16 -26
169 -32 233 -1 21 -5 46 -8 55 -3 9 -8 43 -11 75 -4 32 -8 68 -11 80 -2 12 -7
42 -10 67 -3 25 -7 56 -10 70 -2 14 -6 50 -9 80 -4 30 -8 62 -10 70 -2 8 -7
38 -10 65 -3 28 -8 61 -10 75 -3 14 -7 45 -10 70 -3 25 -8 59 -10 75 -2 17
-14 98 -25 180 -12 83 -23 167 -25 188 -2 21 -7 55 -10 75 -8 48 -14 88 -20
137 -3 22 -8 58 -11 80 -9 61 -11 75 -19 140 -4 33 -9 68 -11 79 -2 10 -6 42
-9 71 l-7 53 111 194 c61 106 115 200 120 208 6 8 38 64 73 124 35 61 78 135
95 165 18 31 53 92 78 136 25 44 50 87 55 95 40 64 110 191 110 199 0 6 4 11
9 11 5 0 11 8 15 18 3 9 15 31 26 47 11 17 24 39 29 50 5 11 41 74 79 140 39
66 83 143 98 170 14 28 31 53 36 56 5 3 8 8 7 10 -3 4 66 126 107 191 13 21
24 40 24 43 0 2 26 49 58 102 32 54 61 105 65 113 4 8 15 29 26 45 21 35 191
329 268 464 29 51 53 97 53 101 0 5 4 10 8 12 4 2 37 54 72 116 36 63 73 128
83 145 10 18 91 158 179 312 88 154 169 292 179 307 11 15 19 29 19 32 0 2 79
140 175 306 96 167 175 306 175 309 0 11 42 53 47 47 3 -3 7 -42 9 -88z
m-12691 -4322 c39 -9 149 -34 245 -56 451 -103 538 -123 577 -131 23 -4 68
-15 100 -23 32 -8 69 -17 83 -20 14 -2 106 -23 205 -46 189 -43 208 -48 240
-54 62 -13 385 -87 413 -95 18 -5 33 -10 35 -9 8 1 85 -15 97 -20 8 -3 24 -7
35 -8 11 -1 70 -14 130 -28 61 -15 121 -29 135 -32 14 -3 34 -8 45 -10 11 -3
31 -7 45 -10 14 -3 41 -9 60 -14 19 -5 46 -11 60 -14 19 -3 536 -122 665 -152
11 -3 40 -9 65 -14 25 -5 77 -16 115 -25 39 -9 77 -18 85 -20 8 -2 47 -11 85
-20 39 -9 81 -19 95 -21 14 -2 36 -7 50 -11 14 -4 32 -8 40 -9 8 -1 65 -14
125 -28 149 -36 286 -67 310 -71 11 -1 38 -8 60 -13 22 -6 51 -13 65 -16 27
-5 63 -13 95 -21 56 -13 243 -56 260 -59 11 -2 60 -13 109 -25 50 -12 97 -23
105 -25 9 -1 51 -10 93 -20 82 -19 78 -15 93 -96 2 -14 16 -77 31 -140 14 -63
28 -128 30 -145 3 -16 7 -36 10 -44 4 -11 25 -112 39 -184 2 -9 6 -20 8 -25 3
-4 8 -24 11 -44 3 -21 11 -59 17 -85 14 -64 18 -83 25 -118 2 -16 9 -46 14
-65 8 -32 45 -201 56 -260 3 -14 9 -41 14 -60 5 -19 11 -46 14 -60 2 -14 10
-47 16 -75 13 -57 18 -79 25 -115 7 -36 14 -72 20 -95 4 -18 12 -55 30 -135 3
-14 7 -34 9 -45 2 -11 11 -50 20 -86 8 -37 18 -80 20 -95 9 -46 46 -216 56
-254 5 -19 12 -51 15 -70 3 -19 8 -42 10 -50 2 -10 -54 -56 -171 -140 -96 -69
-190 -136 -209 -150 -59 -44 -191 -140 -238 -172 -10 -7 -26 -19 -35 -26 -91
-68 -167 -122 -172 -122 -3 0 -15 -8 -26 -18 -17 -16 -100 -78 -164 -122 -20
-14 -428 -309 -645 -466 -49 -36 -148 -107 -218 -158 l-128 -92 -82 2 c-164 6
-406 23 -537 39 -14 1 -56 5 -95 9 -38 3 -79 8 -91 10 -21 4 -115 16 -169 21
-16 2 -57 8 -90 13 -33 6 -76 13 -95 16 -19 3 -46 8 -60 11 -14 3 -45 8 -70
11 -25 3 -48 8 -51 10 -4 2 -24 6 -45 9 -45 6 -52 7 -175 34 -132 28 -139 30
-189 41 -25 6 -54 13 -65 15 -42 9 -60 14 -62 15 -2 2 -6 3 -10 4 -19 4 -89
18 -93 18 -3 0 -16 5 -30 10 -14 5 -59 19 -100 29 -77 20 -175 50 -337 101
-51 16 -95 29 -98 28 -3 0 -19 7 -35 15 -16 8 -33 16 -37 16 -5 1 -19 6 -33
11 -14 5 -37 12 -53 15 -15 3 -30 10 -33 14 -3 5 -15 9 -28 9 -12 0 -26 4 -32
8 -5 5 -31 17 -59 26 -61 22 -256 99 -310 122 -22 10 -42 18 -45 19 -8 2 -49
21 -105 46 -27 12 -52 23 -55 24 -33 8 -526 253 -645 320 -165 93 -325 187
-430 254 -66 42 -128 81 -137 86 -61 35 -155 106 -155 117 0 7 -12 56 -26 108
-14 52 -37 138 -51 190 -14 52 -32 122 -42 155 -9 33 -20 76 -24 95 -5 19 -18
69 -29 110 -12 41 -23 88 -26 104 -3 16 -8 33 -11 38 -3 4 -7 16 -9 25 -2 10
-15 63 -30 118 -14 55 -28 108 -31 118 -17 69 -19 76 -27 97 -3 8 -8 26 -10
40 -3 14 -21 86 -41 160 -20 74 -39 142 -41 150 -2 8 -13 52 -26 97 -19 70
-20 84 -8 96 8 8 48 52 89 98 41 45 84 93 95 105 11 12 47 52 80 90 33 37 71
79 85 93 14 15 61 67 105 116 44 50 85 95 90 101 11 12 169 185 200 220 11 12
48 53 82 91 34 38 74 83 90 100 15 17 62 68 103 114 41 46 98 108 125 138 28
31 55 61 60 67 6 6 44 49 85 94 41 46 83 92 93 104 10 12 51 56 90 99 78 86
63 82 192 53z m-3400 -1156 c11 -5 121 -50 245 -100 235 -95 236 -95 312 -129
26 -12 55 -21 63 -21 8 0 15 -4 15 -10 0 -6 3 -9 8 -8 6 2 117 -41 222 -85 14
-6 27 -11 30 -12 3 -1 18 -7 33 -13 16 -7 30 -12 33 -12 4 0 25 -9 136 -59 26
-11 54 -21 61 -21 7 0 17 -4 22 -8 6 -5 71 -33 145 -62 74 -30 137 -55 139
-57 2 -1 9 -24 16 -50 7 -27 30 -111 50 -188 20 -77 39 -147 41 -155 2 -8 13
-49 24 -90 25 -90 97 -365 106 -400 3 -14 8 -32 11 -40 3 -8 7 -22 9 -30 2 -8
13 -51 24 -95 12 -44 23 -88 25 -98 2 -9 6 -21 9 -25 3 -5 7 -19 10 -33 2 -13
14 -61 26 -107 12 -46 20 -85 18 -88 -4 -3 -144 99 -158 116 -3 3 -19 16 -36
28 -17 12 -44 32 -60 46 -16 13 -76 64 -134 112 -58 49 -107 91 -110 94 -3 3
-43 39 -90 80 -219 194 -456 430 -725 724 -9 10 -105 122 -169 196 -12 14 -50
61 -86 105 -35 44 -67 82 -70 85 -13 12 -225 294 -278 370 -17 25 -41 58 -53
73 l-21 28 68 -26 c38 -14 78 -30 89 -35z m9205 -2584 c69 -14 141 -28 160
-31 19 -3 44 -8 55 -10 41 -7 532 -105 581 -115 28 -6 64 -13 80 -16 16 -3 63
-12 104 -21 41 -8 86 -17 100 -20 14 -2 70 -13 125 -24 55 -11 111 -23 125
-25 14 -3 70 -14 125 -25 55 -12 109 -23 120 -24 42 -6 178 -35 181 -38 5 -4
-119 -62 -266 -124 -58 -24 -114 -48 -125 -53 -18 -9 -72 -30 -85 -35 -3 -1
-18 -7 -35 -14 -152 -62 -334 -126 -344 -121 -2 1 -7 -2 -10 -7 -14 -20 -709
-226 -841 -249 -14 -3 -41 -9 -60 -14 -19 -5 -47 -11 -63 -14 -15 -3 -35 -7
-45 -10 -9 -3 -28 -7 -42 -10 -14 -3 -93 -18 -176 -35 -83 -16 -170 -32 -195
-36 -39 -5 -71 -10 -189 -30 -19 -4 -51 -8 -70 -10 -19 -2 -48 -6 -65 -9 -16
-3 -55 -7 -85 -11 -30 -3 -71 -8 -90 -10 -19 -3 -66 -7 -105 -10 -38 -2 -70
-5 -70 -6 0 -2 -62 -7 -291 -24 -33 -3 -127 -7 -208 -9 -168 -5 -166 -9 -46
74 36 24 70 48 75 53 17 14 276 201 300 217 13 8 86 60 162 116 76 56 208 151
293 213 85 62 164 119 175 127 11 8 57 41 101 73 45 32 93 66 107 77 13 10 35
26 47 34 29 19 210 151 275 200 30 23 58 37 70 35 11 -3 76 -15 145 -29z"/>
</g>
</svg>
